<?xml version="1.0" standalone="no"?>
<!DOCTYPE svg PUBLIC "-//W3C//DTD SVG 20010904//EN"
 "http://www.w3.org/TR/2001/REC-SVG-20010904/DTD/svg10.dtd">
<svg version="1.0" xmlns="http://www.w3.org/2000/svg"
 width="300.000000pt" height="300.000000pt" viewBox="0 0 300.000000 300.000000"
 preserveAspectRatio="xMidYMid meet">

<g transform="translate(0.000000,300.000000) scale(0.100000,-0.100000)"
fill="#000000" stroke="none">
<path d="M1363 2620 c-359 -51 -644 -244 -841 -571 l-22 -37 147 -113 c82 -63
154 -119 161 -126 16 -15 53 -36 55 -31 1 2 17 35 36 73 83 174 228 296 421
356 88 27 249 32 340 10 74 -19 188 -74 237 -116 l41 -35 148 151 c82 82 150
153 152 158 6 18 -185 151 -273 190 -59 26 -171 62 -240 77 -86 18 -278 26
-362 14z"/>
<path d="M1510 1494 l0 -215 308 2 c173 1 307 -2 307 -7 0 -5 -9 -35 -18 -68
-25 -79 -86 -174 -153 -236 -31 -27 -47 -47 -37 -43 10 3 15 3 11 -2 -4 -4 34
-39 85 -76 51 -38 112 -87 137 -109 51 -47 80 -51 97 -14 10 22 10 25 -3 20
-23 -9 -73 21 -71 42 1 13 7 18 19 14 13 -3 17 -10 13 -23 -6 -18 12 -24 72
-22 7 1 10 -3 7 -8 -3 -5 0 -9 7 -9 7 0 2 -11 -11 -25 -12 -13 -26 -23 -29
-20 -4 2 -12 1 -18 -3 -7 -5 -7 -11 2 -19 30 -28 194 194 254 342 13 33 35
103 48 155 29 112 47 321 29 332 -8 6 -8 8 1 8 7 0 10 12 8 33 -5 38 -14 137
-15 155 0 9 -112 12 -525 12 l-525 0 0 -216z m85 196 c3 -5 21 -10 38 -10 24
0 28 3 17 10 -10 7 12 9 70 8 l85 -1 -65 -7 c-65 -6 -65 -6 -20 -11 43 -5 42
-6 -16 -7 -89 -3 -196 10 -164 19 37 10 48 10 55 -1z m340 0 c-30 -13 160 -12
285 1 71 8 136 9 203 3 53 -6 97 -6 97 -2 0 4 5 8 10 8 6 0 10 -7 10 -15 0
-13 -48 -15 -376 -13 -207 1 -372 4 -367 5 11 4 124 20 143 21 9 0 7 -3 -5 -8z
m128 3 c-13 -2 -33 -2 -45 0 -13 2 -3 4 22 4 25 0 35 -2 23 -4z m-383 -44 c0
-7 16 -9 48 -5 89 12 275 18 269 10 -3 -5 23 -8 56 -6 226 10 494 10 495 -1 2
-17 4 -253 3 -307 -1 -32 -4 -41 -11 -30 -14 23 -20 9 -24 -66 -3 -45 -2 -60
3 -44 5 14 9 20 10 13 1 -16 -19 -113 -29 -138 -5 -11 -11 -27 -13 -35 -3 -9
-6 -6 -6 8 -1 19 -4 21 -20 12 -13 -7 -22 -7 -26 0 -3 5 -1 10 6 10 8 0 10 12
6 38 -3 20 -3 31 0 24 3 -9 10 -4 19 13 19 36 18 65 -2 65 -8 0 -13 -4 -9 -9
3 -5 1 -12 -5 -16 -5 -3 -10 -1 -10 4 0 6 -4 11 -10 11 -5 0 -10 -24 -10 -54
0 -30 -4 -56 -9 -58 -4 -1 -10 -22 -14 -46 -3 -24 -1 -40 4 -36 12 7 11 -3 -2
-27 -8 -16 -7 -25 7 -40 22 -24 29 -18 14 11 -13 25 -4 42 11 20 9 -12 10 -10
6 7 -3 15 -1 20 9 16 8 -3 14 0 14 6 0 6 4 11 9 11 5 0 -5 -26 -21 -57 -31
-61 -48 -84 -48 -67 0 6 6 16 13 23 10 10 9 11 -5 6 -12 -5 -18 -18 -18 -39 0
-18 -9 -41 -22 -56 -13 -14 -29 -37 -37 -52 -8 -16 -19 -28 -24 -28 -6 0 -7 3
-4 7 4 3 2 12 -4 19 -7 8 -6 14 2 20 8 4 9 3 5 -4 -4 -7 -1 -12 8 -12 20 0 20
20 2 46 -10 13 -27 19 -55 19 -23 0 -41 -3 -41 -7 0 -5 5 -8 12 -8 6 0 9 -2 6
-5 -8 -9 -38 6 -32 16 3 5 -17 9 -45 9 -27 0 -53 -4 -56 -10 -3 -6 3 -10 14
-10 24 0 33 -11 22 -28 -9 -15 -51 17 -51 39 0 12 -2 12 -9 0 -5 -8 -11 -9
-15 -3 -3 5 0 12 7 15 10 4 13 33 12 119 -1 129 20 233 43 205 9 -11 10 -22 2
-41 -12 -33 -13 -46 -1 -46 5 0 11 12 13 28 3 15 9 36 13 46 6 12 5 17 -2 13
-11 -7 -38 42 -28 51 3 4 8 -4 12 -17 4 -17 8 -19 14 -9 7 11 9 11 9 -1 0 -7
6 -11 14 -8 10 4 13 1 10 -8 -5 -11 2 -14 28 -13 l33 1 -1 76 -1 75 -64 2
c-40 1 -67 -2 -71 -9 -5 -8 -11 -9 -15 -2 -9 11 -104 14 -96 3 2 -5 -3 -8 -12
-8 -9 0 -13 5 -10 10 3 6 0 10 -9 10 -8 0 -17 -6 -19 -12 -4 -10 -7 -10 -14 0
-6 8 -35 12 -92 11 -47 -1 -77 -6 -69 -10 11 -7 -34 -4 -84 6 -10 2 -18 -2
-18 -8 0 -7 -5 -5 -10 3 -8 12 -11 13 -19 1 -6 -9 -11 -10 -15 -2 -4 6 -12 9
-17 6 -5 -4 -10 46 -11 122 -1 90 -3 114 -8 83 -6 -39 -7 -33 -8 38 l-2 82 43
2 c28 1 17 4 -33 8 l-75 6 83 2 c54 1 82 -2 82 -9z m-143 -71 c-2 -13 -4 -3
-4 22 0 25 2 35 4 23 2 -13 2 -33 0 -45z m50 -240 c-2 -13 -4 -3 -4 22 0 25 2
35 4 23 2 -13 2 -33 0 -45z m559 -43 c13 -13 13 -15 1 -15 -8 0 -17 7 -21 15
-3 8 -3 15 0 15 3 0 12 -7 20 -15z m54 -10 c11 -13 10 -14 -4 -9 -9 3 -16 10
-16 15 0 13 6 11 20 -6z m337 -42 c-3 -10 -5 -2 -5 17 0 19 2 27 5 18 2 -10 2
-26 0 -35z m-377 16 c0 -5 -5 -7 -11 -3 -7 4 -10 1 -7 -7 3 -8 11 -13 18 -11
7 1 18 -2 25 -8 7 -6 20 -7 30 -4 15 6 16 4 5 -16 l-12 -23 -18 23 c-11 15
-19 19 -24 11 -4 -6 -11 -11 -15 -11 -11 0 -22 40 -15 52 7 12 24 10 24 -3z
m50 -8 c0 -5 -9 -7 -20 -4 -11 3 -20 7 -20 9 0 2 9 4 20 4 11 0 20 -4 20 -9z
m-136 -193 c-1 -24 -2 -46 -3 -50 -1 -3 -13 -5 -27 -3 -14 1 -30 -3 -35 -9
-37 -47 -69 -79 -69 -69 0 22 79 93 96 86 13 -5 15 -2 9 18 -7 24 -7 24 9 4
17 -20 17 -20 11 3 -5 18 1 62 9 62 1 0 1 -19 0 -42z m361 -28 c3 -5 1 -10 -4
-10 -6 0 -11 5 -11 10 0 6 2 10 4 10 3 0 8 -4 11 -10z m-408 -77 c0 -9 -4 -10
-14 -2 -7 6 -13 12 -13 14 0 1 6 2 13 2 8 0 14 -6 14 -14z m-21 -15 c4 -7 4
-10 -1 -6 -4 4 -14 3 -22 -3 -8 -8 -13 -8 -13 -1 0 6 6 13 13 15 6 3 13 6 14
6 1 1 5 -5 9 -11z m47 -28 c-3 -12 -8 -19 -11 -16 -5 6 5 36 12 36 2 0 2 -9
-1 -20z m27 -30 c0 -5 -4 -10 -10 -10 -5 0 -10 5 -10 10 0 6 5 10 10 10 6 0
10 -4 10 -10z m173 -93 c3 -8 -1 -14 -9 -14 -7 0 -11 4 -8 8 2 4 -2 10 -8 12
-8 4 -7 6 3 6 9 1 19 -5 22 -12z"/>
<path d="M2278 1683 c23 -2 61 -2 85 0 23 2 4 4 -43 4 -47 0 -66 -2 -42 -4z"/>
<path d="M1828 1643 c17 -2 47 -2 65 0 17 2 3 4 -33 4 -36 0 -50 -2 -32 -4z"/>
<path d="M2178 1643 c12 -2 32 -2 45 0 12 2 2 4 -23 4 -25 0 -35 -2 -22 -4z"/>
<path d="M2423 1643 c15 -2 37 -2 50 0 12 2 0 4 -28 4 -27 0 -38 -2 -22 -4z"/>
<path d="M2400 1314 c0 -9 41 -44 52 -44 4 0 8 11 8 25 0 21 -5 25 -30 25 -16
0 -30 -3 -30 -6z"/>
<path d="M2490 1288 c0 -25 3 -29 10 -18 13 20 13 50 0 50 -5 0 -10 -15 -10
-32z"/>
<path d="M2400 1246 c0 -29 19 -38 59 -26 30 8 31 7 31 -21 0 -17 -5 -39 -10
-50 -7 -13 -7 -19 0 -19 5 0 10 8 10 18 0 15 2 15 11 2 9 -12 10 -12 5 3 -3
10 -6 34 -6 53 0 33 -1 34 -40 34 -29 0 -40 4 -40 15 0 8 -4 15 -10 15 -5 0
-10 -11 -10 -24z"/>
<path d="M2403 1155 c0 -22 2 -30 4 -17 2 12 2 30 0 40 -3 9 -5 -1 -4 -23z"/>
<path d="M2467 1114 c-4 -4 -7 -15 -7 -25 0 -27 34 -16 38 12 2 17 0 20 -6 10
-7 -9 -11 -10 -13 -2 -3 7 -8 9 -12 5z"/>
<path d="M2323 819 c9 -15 12 -15 29 0 23 20 23 19 -11 17 -23 0 -27 -3 -18
-17z"/>
<path d="M867 1235 c9 -19 18 -33 20 -32 5 6 -21 67 -29 67 -4 0 0 -16 9 -35z"/>
<path d="M890 1186 c0 -10 48 -84 60 -91 5 -3 -4 15 -22 42 -38 58 -38 58 -38
49z"/>
<path d="M969 1063 c5 -10 22 -29 37 -43 24 -22 23 -20 -6 18 -35 44 -47 54
-31 25z"/>
<path d="M520 1010 c-13 -8 -13 -14 4 -45 11 -19 21 -33 24 -30 3 2 -3 16 -12
30 -14 21 -15 29 -5 41 13 16 10 18 -11 4z"/>
<path d="M1051 977 c2 -1 15 -11 29 -22 l25 -20 -19 23 c-11 12 -24 22 -29 22
-6 0 -8 -1 -6 -3z"/>
<path d="M1130 920 c28 -25 102 -64 140 -74 14 -4 -3 7 -38 23 -34 17 -77 40
-95 51 l-32 22 25 -22z"/>
<path d="M1830 885 c-14 -8 -20 -14 -14 -15 5 0 19 7 30 15 24 18 16 19 -16 0z"/>
<path d="M580 881 c0 -6 4 -13 10 -16 6 -3 7 1 4 9 -7 18 -14 21 -14 7z"/>
<path d="M618 824 c12 -17 28 -37 37 -44 27 -23 16 -3 -22 36 -30 33 -33 34
-15 8z"/>
<path d="M1408 813 c7 -3 16 -2 19 1 4 3 -2 6 -13 5 -11 0 -14 -3 -6 -6z"/>
<path d="M1568 813 c12 -2 32 -2 45 0 12 2 2 4 -23 4 -25 0 -35 -2 -22 -4z"/>
<path d="M705 721 c22 -21 42 -37 44 -36 4 5 -67 75 -76 75 -4 0 10 -18 32
-39z"/>
<path d="M2260 725 c-7 -9 -11 -18 -8 -20 3 -3 11 1 18 10 7 9 11 18 8 20 -3
3 -11 -1 -18 -10z"/>
<path d="M779 656 c14 -15 26 -26 28 -26 9 0 -24 40 -37 45 -8 4 -4 -5 9 -19z"/>
<path d="M832 614 c16 -18 78 -59 78 -51 0 2 -21 19 -47 37 -27 19 -40 25 -31
14z"/>
<path d="M2133 582 c-55 -36 -68 -51 -18 -22 37 21 75 51 65 49 -3 0 -24 -12
-47 -27z"/>
<path d="M920 557 c0 -3 12 -12 26 -22 15 -9 23 -12 20 -6 -7 11 -46 35 -46
28z"/>
<path d="M1010 506 c0 -2 7 -7 16 -10 8 -3 12 -2 9 4 -6 10 -25 14 -25 6z"/>
<path d="M1140 450 c0 -5 5 -10 11 -10 5 0 7 5 4 10 -3 6 -8 10 -11 10 -2 0
-4 -4 -4 -10z"/>
<path d="M1228 423 c7 -3 16 -2 19 1 4 3 -2 6 -13 5 -11 0 -14 -3 -6 -6z"/>
<path d="M1695 410 c-13 -5 -14 -9 -5 -9 8 0 24 4 35 9 13 5 14 9 5 9 -8 0
-24 -4 -35 -9z"/>
<path d="M1378 393 c12 -2 32 -2 45 0 12 2 2 4 -23 4 -25 0 -35 -2 -22 -4z"/>
<path d="M1533 393 c9 -2 25 -2 35 0 9 3 1 5 -18 5 -19 0 -27 -2 -17 -5z"/>
<path d="M1613 393 c9 -2 23 -2 30 0 6 3 -1 5 -18 5 -16 0 -22 -2 -12 -5z"/>
</g>
</svg>
